<?xml version="1.0" encoding="utf-8"?>
<!-- Generator: Adobe Illustrator 23.0.1, SVG Export Plug-In . SVG Version: 6.00 Build 0)  -->
<svg version="1.1" id="Capa_1" xmlns="http://www.w3.org/2000/svg" xmlns:xlink="http://www.w3.org/1999/xlink" x="0px" y="0px"
	 viewBox="0 0 231 73" style="enable-background:new 0 0 231 73;" xml:space="preserve">
<style type="text/css">
	.st0{fill:#FFFFFF;}
</style>
<g>
	<polygon class="st0" points="27.37,60.73 16.31,60.73 16.31,65.2 27.7,65.2 	"/>
	<polygon class="st0" points="5.26,60.73 4.93,65.2 16.31,65.2 16.31,60.73 	"/>
	<rect x="1.65" y="65.2" class="st0" width="14.67" height="6.65"/>
	<rect x="16.31" y="65.2" class="st0" width="14.67" height="6.65"/>
	<polygon class="st0" points="24.46,21.2 16.31,21.2 16.31,22.85 24.58,22.85 	"/>
	<polygon class="st0" points="8.16,21.2 8.04,22.85 16.31,22.85 16.31,21.2 	"/>
	<polygon class="st0" points="16.31,1.03 16.31,19.14 24.31,19.14 23.87,13.18 20.09,13.18 20.09,10.48 25.01,10.48 19.94,1.03 	"/>
	<polygon class="st0" points="12.69,1.03 7.61,10.48 12.53,10.48 12.53,13.18 8.75,13.18 8.32,19.14 16.31,19.14 16.31,1.03 	"/>
	<rect x="1.65" y="54.08" class="st0" width="14.67" height="6.65"/>
	<g>
		<path class="st0" d="M29.56,19.14H16.31v2.06H27.5v1.65H16.31v7.05h7.23c0.53,0,1.05-0.08,1.54-0.21
			c0.14-0.04,0.29-0.08,0.43-0.13c2.04-0.71,3.58-2.48,3.96-4.65h0.09V19.14z"/>
		<rect x="16.31" y="54.08" class="st0" width="14.67" height="6.65"/>
		<path class="st0" d="M16.31,21.2v-2.06H3.06v3.72l0,2.06h0.09c0.38,2.17,1.92,3.94,3.96,4.65c0.14,0.05,0.28,0.09,0.43,0.13
			c0.49,0.13,1.01,0.21,1.54,0.21h7.23v-7.05H5.12V21.2H16.31z"/>
		<path class="st0" d="M25.12,30.18l-0.04-0.48c-0.49,0.13-1.01,0.21-1.54,0.21h-0.51h-0.19l-6.53,10.18v3.82l6.53,10.18h4.04
			L25.12,30.18z M17.54,41.99l5.73-8.92l1.48,20.16L17.54,41.99z"/>
		<path class="st0" d="M9.78,29.91H9.59H9.09c-0.53,0-1.05-0.08-1.54-0.21l-0.04,0.48l-1.76,23.9h4.04l6.53-10.18v-3.82L9.78,29.91z
			 M7.88,53.23l1.48-20.16l5.73,8.93L7.88,53.23z"/>
	</g>
	<g>
		<path class="st0" d="M47.29,52.15c0,1.96,2.31,2.94,4.67,2.94c2.19,0,4.5-0.98,4.5-2.7c0-2.74-3.28-2.86-5.43-2.99
			c-5.39-0.33-10.77-2.41-10.77-8.38c0-6.21,5.43-9.36,11.45-9.36c5.68,0,11.45,3.15,11.32,9.36h-7.19c-0.04-1.96-1.94-2.78-4-2.78
			c-1.72,0-4,0.45-4,2.62c0,1.92,1.68,2.37,4.5,2.66c6.27,0.53,11.74,1.96,11.74,8.91c0,6.01-6.02,9.16-12.03,9.16
			c-6.23,0-12.2-3.03-12.08-9.45H47.29z"/>
		<path class="st0" d="M85.46,52.72H72.88c0.34,2.58,2.61,3.15,5.05,3.15c2.4,0,5.43-0.61,6.86-1.27l0.8,5.03
			c-2.48,1.1-5.3,1.8-8.12,1.84c-6.77,0-11.74-3.76-11.74-10.47c0-7.16,5.55-10.3,10.77-10.3C84.24,40.82,87.27,45.77,85.46,52.72
			 M79.48,48.55c0.21-1.8-1.56-2.54-3.03-2.54c-1.51,0-3.2,0.86-3.53,2.54H79.48z"/>
		<path class="st0" d="M102.88,60.94V49.66c0.04-2.25-1.39-3.35-2.95-3.39c-1.68,0-3.41,1.14-3.41,3.52v11.16h-7.15v-13.7
			c0-1.51,0.08-2.25-1.72-2.25v-3.8c2.82-0.65,8.54-1.1,8.67,2.74c1.14-2.09,3.53-3.15,5.85-3.15c5.89,0,8.04,3.93,7.91,8.87v11.29
			H102.88z"/>
		<path class="st0" d="M122.36,41.23h6.18v4.91h-6.18v6.87c0,3.6,3.91,3.35,6.52,2.45l0.59,5.19c-6.98,1.88-14.14,0.86-14.14-7.48
			v-7.03l-3.58-0.45v-4.46h3.58l0.8-6.09h6.23V41.23z"/>
		<path class="st0" d="M135.36,32.03c2.06,0.04,4.08,1.35,4.08,3.93c0,2.62-2.02,3.93-4.08,3.97c-2.1,0.04-4.21-1.31-4.21-3.97
			C131.15,33.3,133.26,31.99,135.36,32.03 M138.85,60.94h-7.15l0.04-19.42h7.11V60.94z"/>
		<polygon class="st0" points="169.65,32.28 171,32.28 171,60.94 167.46,60.94 167.46,40.29 157.79,53.21 157.24,53.21 
			147.56,40.29 147.56,60.94 144.03,60.94 144.03,32.28 145.42,32.28 157.53,48.27 		"/>
		<path class="st0" d="M182.19,61.27c-3.75,0-7.15-2.13-7.28-6.09c-0.13-4.5,3.66-6.83,7.87-6.83c2.31,0,4.97,0.53,6.98,1.64v-2.41
			c0-3.31-3.62-4.21-6.4-4.21c-2.31,0-4.59,0.45-6.31,1.43l-0.55-2.45c1.98-0.98,4.67-1.55,7.36-1.55c4.59,0,9,1.72,8.88,6.87v8.22
			c0,2.17-0.13,3.44,2.36,3.11l0.04,2.09c-3.37,0.53-4.97-0.08-4.97-3.68C188.71,60.12,185.26,61.27,182.19,61.27 M189.72,52.4
			c-1.85-1.02-4.33-1.59-6.4-1.59c-2.69,0-5.3,1.43-5.18,4.25c0.13,2.49,2.36,3.48,4.63,3.48c2.65,0,6.27-1.31,6.94-4.25V52.4z"/>
		<path class="st0" d="M207.99,40.58c1.77,0,3.37,0.49,4.75,1.47l-0.8,2.7c-1.3-0.82-2.73-1.31-4.29-1.31c-2.9,0-5.6,2.13-5.6,5.23
			v12.27h-3.24V45.85c0-1.8-0.04-2.9-2.44-2.7l-0.04-2.13c3.16-0.53,5.39-0.2,5.51,2.82C202.98,41.44,205.29,40.58,207.99,40.58"/>
	</g>
	<g>
		<polygon class="st0" points="215.03,28.8 215.68,28.8 217.78,31.95 219.88,28.8 220.54,28.8 220.54,34.56 219.89,34.56 
			219.89,29.9 217.79,32.98 217.76,32.98 215.66,29.91 215.66,34.56 215.03,34.56 		"/>
		<path class="st0" d="M222.17,28.8h2.48c0.71,0,1.28,0.21,1.64,0.58c0.28,0.28,0.44,0.68,0.44,1.14v0.02
			c0,0.95-0.66,1.51-1.56,1.68l1.77,2.35h-0.8l-1.67-2.24h-0.02h-1.63v2.24h-0.65V28.8z M224.59,31.74c0.86,0,1.48-0.44,1.48-1.18
			v-0.02c0-0.71-0.54-1.14-1.47-1.14h-1.78v2.34H224.59z"/>
	</g>
	<g>
		<path class="st0" d="M39.82,71.84l2.92-7.39h1.08l3.11,7.39h-1.15l-0.89-2.24h-3.18l-0.83,2.24H39.82z M42.01,68.81h2.57
			l-0.79-2.05c-0.24-0.62-0.42-1.13-0.54-1.53c-0.1,0.47-0.23,0.94-0.41,1.41L42.01,68.81z"/>
		<path class="st0" d="M51.72,71.84v-7.39h1v7.39H51.72z"/>
		<path class="st0" d="M58.31,71.84v-7.39h2.62c0.59,0,1.04,0.04,1.35,0.11c0.44,0.1,0.81,0.27,1.11,0.53
			c0.4,0.33,0.7,0.75,0.9,1.26c0.2,0.51,0.3,1.1,0.3,1.76c0,0.56-0.07,1.06-0.2,1.49c-0.13,0.43-0.31,0.79-0.52,1.08
			c-0.21,0.28-0.44,0.51-0.69,0.67c-0.25,0.16-0.55,0.29-0.91,0.37c-0.35,0.08-0.76,0.13-1.22,0.13H58.31z M59.32,70.97h1.62
			c0.5,0,0.89-0.04,1.18-0.14c0.28-0.09,0.51-0.22,0.68-0.38c0.24-0.23,0.42-0.54,0.56-0.93c0.13-0.39,0.2-0.87,0.2-1.42
			c0-0.77-0.13-1.37-0.39-1.78c-0.26-0.42-0.58-0.69-0.95-0.83c-0.27-0.1-0.7-0.15-1.3-0.15h-1.6V70.97z"/>
		<path class="st0" d="M69.45,69.47l0.95-0.08c0.05,0.37,0.15,0.67,0.31,0.91c0.16,0.24,0.42,0.43,0.76,0.57
			c0.35,0.15,0.73,0.22,1.17,0.22c0.38,0,0.72-0.06,1.02-0.17c0.29-0.11,0.51-0.26,0.66-0.46s0.22-0.4,0.22-0.63
			c0-0.23-0.07-0.43-0.21-0.61c-0.14-0.17-0.37-0.32-0.68-0.44c-0.2-0.08-0.65-0.2-1.35-0.36c-0.7-0.16-1.19-0.32-1.47-0.46
			c-0.36-0.18-0.63-0.41-0.81-0.69c-0.18-0.27-0.27-0.58-0.27-0.92c0-0.37,0.11-0.72,0.33-1.05c0.22-0.32,0.54-0.57,0.95-0.74
			c0.42-0.17,0.88-0.25,1.39-0.25c0.56,0,1.06,0.09,1.49,0.26c0.43,0.18,0.76,0.44,0.99,0.78c0.23,0.34,0.36,0.73,0.37,1.16
			L74.3,66.6c-0.05-0.47-0.23-0.82-0.53-1.06c-0.3-0.24-0.74-0.36-1.32-0.36c-0.61,0-1.05,0.11-1.33,0.33
			c-0.28,0.22-0.42,0.48-0.42,0.78c0,0.27,0.1,0.48,0.3,0.66c0.19,0.17,0.7,0.35,1.52,0.53c0.82,0.18,1.38,0.34,1.68,0.47
			c0.44,0.2,0.77,0.45,0.98,0.75c0.21,0.3,0.32,0.66,0.32,1.05c0,0.39-0.12,0.76-0.35,1.11c-0.23,0.35-0.56,0.62-1,0.81
			c-0.43,0.19-0.92,0.29-1.46,0.29c-0.69,0-1.26-0.1-1.73-0.29s-0.83-0.49-1.09-0.88C69.6,70.4,69.46,69.96,69.45,69.47z"/>
		<path class="st0" d="M89.19,71.84v-6.52h-2.5v-0.87h6.02v0.87H90.2v6.52H89.19z"/>
		<path class="st0" d="M97.06,68.24c0-1.23,0.34-2.19,1.02-2.88s1.55-1.04,2.62-1.04c0.7,0,1.33,0.16,1.9,0.49
			c0.56,0.33,0.99,0.78,1.29,1.36c0.3,0.58,0.44,1.25,0.44,1.98c0,0.75-0.16,1.42-0.47,2.01c-0.31,0.59-0.75,1.04-1.32,1.34
			c-0.57,0.3-1.18,0.46-1.84,0.46c-0.71,0-1.35-0.17-1.92-0.5c-0.56-0.34-0.99-0.8-1.28-1.38C97.21,69.51,97.06,68.89,97.06,68.24z
			 M98.1,68.26c0,0.89,0.25,1.59,0.74,2.11c0.49,0.51,1.11,0.77,1.85,0.77c0.76,0,1.38-0.26,1.87-0.78c0.49-0.52,0.73-1.25,0.73-2.2
			c0-0.6-0.1-1.13-0.31-1.58c-0.21-0.45-0.51-0.8-0.92-1.04c-0.4-0.25-0.85-0.37-1.35-0.37c-0.71,0-1.32,0.24-1.84,0.71
			C98.35,66.35,98.1,67.14,98.1,68.26z"/>
		<path class="st0" d="M116.19,71.84v-7.39h1.03l3.99,5.8v-5.8h0.96v7.39h-1.03l-3.99-5.81v5.81H116.19z"/>
		<path class="st0" d="M126.85,71.84l2.92-7.39h1.08l3.11,7.39h-1.14l-0.89-2.24h-3.18l-0.83,2.24H126.85z M129.04,68.81h2.57
			l-0.79-2.05c-0.24-0.62-0.42-1.13-0.54-1.53c-0.1,0.47-0.23,0.94-0.41,1.41L129.04,68.81z"/>
		<path class="st0" d="M139.96,71.84l-2.94-7.39h1.09l1.97,5.37c0.16,0.43,0.29,0.83,0.4,1.21c0.12-0.4,0.25-0.81,0.41-1.21
			l2.05-5.37h1.03l-2.97,7.39H139.96z"/>
		<path class="st0" d="M148.86,71.84v-7.39h1v7.39H148.86z"/>
		<path class="st0" d="M159.01,68.94v-0.87l3.22-0.01v2.74c-0.49,0.38-1,0.67-1.53,0.87c-0.53,0.19-1.06,0.29-1.62,0.29
			c-0.75,0-1.42-0.16-2.03-0.47s-1.07-0.76-1.38-1.35c-0.31-0.59-0.47-1.25-0.47-1.97c0-0.72,0.15-1.39,0.46-2.01
			c0.31-0.62,0.75-1.09,1.33-1.39c0.58-0.3,1.25-0.45,2-0.45c0.55,0,1.05,0.09,1.49,0.26c0.44,0.17,0.79,0.41,1.04,0.72
			c0.25,0.31,0.44,0.71,0.57,1.21l-0.91,0.24c-0.11-0.38-0.26-0.67-0.42-0.89c-0.17-0.21-0.41-0.39-0.73-0.52
			c-0.31-0.13-0.66-0.19-1.05-0.19c-0.46,0-0.86,0.07-1.19,0.2c-0.33,0.14-0.61,0.32-0.81,0.54c-0.21,0.22-0.37,0.47-0.48,0.73
			c-0.19,0.46-0.29,0.95-0.29,1.49c0,0.66,0.12,1.21,0.35,1.65c0.23,0.44,0.57,0.77,1.02,0.99c0.44,0.21,0.92,0.32,1.42,0.32
			c0.44,0,0.86-0.08,1.27-0.24c0.41-0.16,0.73-0.34,0.94-0.52v-1.38H159.01z"/>
		<path class="st0" d="M166.69,71.84l2.92-7.39h1.08l3.11,7.39h-1.14l-0.89-2.24h-3.18l-0.83,2.24H166.69z M168.88,68.81h2.57
			l-0.79-2.05c-0.24-0.62-0.42-1.13-0.54-1.53c-0.1,0.47-0.23,0.94-0.41,1.41L168.88,68.81z"/>
		<path class="st0" d="M179.56,71.84v-6.52h-2.5v-0.87h6.02v0.87h-2.51v6.52H179.56z"/>
		<path class="st0" d="M188.1,71.84v-7.39h1v7.39H188.1z"/>
		<path class="st0" d="M194.39,68.24c0-1.23,0.34-2.19,1.01-2.88c0.68-0.69,1.55-1.04,2.62-1.04c0.7,0,1.33,0.16,1.9,0.49
			c0.56,0.33,0.99,0.78,1.29,1.36c0.3,0.58,0.44,1.25,0.44,1.98c0,0.75-0.16,1.42-0.47,2.01c-0.31,0.59-0.75,1.04-1.32,1.34
			c-0.57,0.3-1.18,0.46-1.84,0.46c-0.71,0-1.35-0.17-1.92-0.5c-0.56-0.34-0.99-0.8-1.28-1.38
			C194.54,69.51,194.39,68.89,194.39,68.24z M195.43,68.26c0,0.89,0.25,1.59,0.74,2.11c0.49,0.51,1.11,0.77,1.85,0.77
			c0.76,0,1.38-0.26,1.87-0.78c0.49-0.52,0.73-1.25,0.73-2.2c0-0.6-0.1-1.13-0.31-1.58c-0.21-0.45-0.51-0.8-0.92-1.04
			c-0.4-0.25-0.85-0.37-1.35-0.37c-0.71,0-1.32,0.24-1.84,0.71C195.68,66.35,195.43,67.14,195.43,68.26z"/>
		<path class="st0" d="M206.76,71.84v-7.39h1.03l3.99,5.8v-5.8h0.96v7.39h-1.03l-3.99-5.81v5.81H206.76z"/>
	</g>
</g>
</svg>
